<?xml version="1.0" standalone="no"?>
<!DOCTYPE svg PUBLIC "-//W3C//DTD SVG 20010904//EN"
 "http://www.w3.org/TR/2001/REC-SVG-20010904/DTD/svg10.dtd">
<svg version="1.0" xmlns="http://www.w3.org/2000/svg"
 width="500.000000pt" height="500.000000pt" viewBox="0 0 500.000000 500.000000"
 preserveAspectRatio="xMidYMid meet">
<metadata>
Created by potrace 1.14, written by Peter Selinger 2001-2017
</metadata>
<g transform="translate(0.000000,500.000000) scale(0.100000,-0.100000)"
fill="#000000" stroke="none">
<path d="M3339 4021 c-24 -15 -55 -40 -68 -55 -14 -14 -33 -26 -43 -26 -10 0
-18 -7 -18 -17 0 -10 -30 -51 -66 -92 -36 -40 -62 -76 -59 -80 4 -3 36 27 72
66 l65 72 54 -58 c29 -32 67 -64 84 -71 35 -15 40 -46 12 -80 -24 -29 -66 -19
-82 20 -16 38 -79 100 -102 100 -45 0 -12 -53 82 -133 59 -49 37 -96 -125
-267 -44 -47 -179 -199 -299 -338 l-218 -253 -39 45 c-45 51 -97 86 -128 86
-69 0 27 135 316 446 194 209 258 283 250 290 -3 3 -21 -11 -39 -32 -54 -63
-135 -151 -254 -279 -208 -222 -304 -347 -304 -394 0 -15 -15 -47 -34 -74 -49
-69 -76 -139 -85 -218 -6 -59 -12 -74 -39 -102 -36 -38 -39 -52 -15 -80 17
-18 17 -19 -1 -32 -13 -10 -40 -12 -100 -8 -68 5 -87 3 -109 -11 -37 -25 -58
-61 -66 -114 -7 -50 0 -44 -151 -129 -189 -105 -350 -144 -350 -82 0 29 38 99
53 96 7 -1 13 11 15 27 3 22 58 82 245 270 327 326 467 483 467 527 0 28 -30
24 -76 -9 -92 -67 -385 -398 -562 -635 -80 -105 -94 -117 -143 -117 -18 0 -67
-17 -108 -37 -68 -34 -83 -38 -151 -37 -89 1 -177 30 -172 57 7 40 -74 1 -132
-64 -62 -69 -69 -139 -13 -139 51 0 106 76 107 146 l0 32 63 -26 c50 -22 78
-27 148 -27 l85 0 -23 -34 c-27 -39 -29 -54 -9 -70 20 -17 59 5 152 86 l76 66
-21 -41 c-57 -112 0 -149 155 -101 38 12 95 34 126 50 68 35 72 35 58 9 -6
-12 -10 -35 -8 -53 3 -27 8 -33 32 -35 51 -6 106 67 106 143 0 40 2 41 33 20
60 -39 216 -55 280 -30 17 7 16 2 -6 -42 -33 -64 -42 -115 -27 -143 30 -55
197 5 440 159 l24 16 -17 -25 c-20 -28 -22 -71 -5 -88 27 -27 110 -5 274 72
52 25 92 41 88 35 -3 -5 0 -17 7 -26 11 -12 27 -14 91 -8 50 4 78 3 78 -4 0
-5 -42 -30 -92 -54 -94 -44 -135 -77 -123 -96 20 -33 106 0 178 68 50 47 60
52 207 95 85 26 160 48 167 51 6 2 -50 -78 -125 -178 -131 -174 -285 -397
-298 -431 -11 -28 22 -18 36 12 55 108 330 484 548 746 89 108 116 134 142
139 18 4 136 7 262 7 150 0 227 3 223 10 -4 6 -97 10 -247 10 l-240 0 54 62
c29 35 99 114 155 176 57 63 100 119 96 125 -4 6 -21 -6 -42 -30 -20 -22 -96
-109 -169 -192 l-134 -151 -72 0 c-76 0 -391 -27 -415 -36 -8 -3 -11 -8 -5
-13 5 -4 59 -2 119 5 61 7 166 16 235 20 l125 7 -21 -24 c-11 -13 -56 -67 -99
-119 -43 -52 -82 -99 -86 -103 -4 -5 -86 -33 -183 -62 -165 -49 -176 -51 -176
-32 0 19 -4 19 -85 13 -93 -8 -101 -3 -69 43 20 29 102 81 126 81 23 0 23 -18
1 -42 -18 -20 -14 -31 10 -23 19 8 41 60 32 76 -15 24 -85 2 -169 -55 -130
-87 -341 -178 -380 -163 -9 4 -16 14 -16 23 0 22 51 102 85 134 42 39 30 56
-13 18 -51 -46 -204 -140 -326 -200 -79 -38 -110 -48 -141 -46 -39 3 -40 4
-39 38 0 19 14 61 30 93 25 53 39 66 129 127 292 201 689 550 781 689 34 51
30 95 -8 99 -109 13 -553 -390 -814 -739 -63 -84 -71 -90 -122 -105 -38 -11
-71 -14 -111 -9 -69 8 -154 43 -144 59 4 6 6 19 5 28 -6 34 18 95 49 123 30
29 32 30 124 27 76 -2 96 0 109 14 15 15 15 18 1 40 -8 13 -15 30 -15 38 0 23
61 65 121 82 61 18 125 52 172 93 18 16 42 31 55 35 12 4 22 15 22 24 0 17
448 542 565 662 86 89 115 134 115 181 0 36 2 39 29 39 37 0 61 23 61 59 0 22
7 29 35 39 19 7 48 31 66 53 65 82 71 165 17 220 -42 41 -115 41 -179 0z m169
-14 c51 -52 38 -133 -36 -209 -46 -49 -64 -48 -87 3 -10 22 -43 62 -72 89
l-53 49 43 35 c85 70 156 81 205 33z m-214 -121 c41 -33 96 -116 78 -116 -15
0 -132 121 -132 136 0 21 9 17 54 -20z m-54 -142 c17 -20 29 -39 25 -42 -6 -6
-75 57 -75 70 0 17 19 6 50 -28z m-1000 -712 c0 -20 -132 -165 -338 -372 -217
-218 -222 -222 -141 -120 120 150 273 322 372 418 80 76 107 95 107 74z m950
-11 c0 -67 -307 -365 -630 -613 -126 -96 -214 -153 -202 -131 58 104 449 517
610 643 143 111 222 147 222 101z m-628 -162 c50 -50 57 -69 34 -88 -29 -24
-111 41 -140 110 -8 20 -13 39 -10 42 13 13 72 -20 116 -64z m-45 -82 c23 -17
43 -34 43 -37 0 -24 -178 -119 -224 -120 -17 0 -18 5 -12 51 10 71 32 135 68
191 l30 48 26 -51 c16 -33 41 -63 69 -82z m-1043 -538 c-28 -31 -164 -139
-175 -139 -23 0 -5 38 39 79 49 48 104 80 136 81 19 0 19 0 0 -21z m-487 -45
c-14 -84 -97 -156 -97 -84 0 22 12 43 41 75 51 55 64 57 56 9z m927 -46 c-23
-46 -44 -68 -66 -68 -39 0 -12 78 44 125 l33 28 3 -26 c2 -14 -4 -41 -14 -59z
m1231 -88 c-19 -20 -93 -60 -113 -60 -28 0 -8 19 51 48 72 37 87 40 62 12z"/>
<path d="M1033 2696 c-6 -11 -49 -20 -143 -31 -171 -20 -418 -59 -427 -68 -16
-17 13 -17 123 2 143 24 347 51 387 51 l29 0 -38 -47 c-21 -27 -104 -124 -184
-218 -239 -278 -311 -376 -335 -452 -5 -17 -2 -23 9 -23 9 0 19 16 26 40 13
49 112 180 295 395 76 88 165 195 199 237 l61 76 104 8 c58 3 141 4 185 1 73
-5 83 -8 103 -33 24 -31 35 -30 27 3 -11 40 -46 48 -226 48 -128 0 -168 3
-168 13 0 17 -17 15 -27 -2z"/>
<path d="M2837 2352 c-10 -10 -14 -22 -10 -25 7 -8 43 21 43 35 0 14 -16 9
-33 -10z"/>
</g>
</svg>
